<svg width="32" height="32" viewBox="0 0 32 32" fill="none" xmlns="http://www.w3.org/2000/svg">
  <path d="M16 4C9.5 4 5 8.5 5 13c0 3.5 2.5 6 5 7h12c2.5-1 5-3.5 5-7 0-4.5-4.5-9-11-9z" fill="#ef4444"/>
  <rect x="13" y="19" width="6" height="8" rx="2" fill="#dc4a42"/>
  <path d="M13 27c-2 1-4.5 1.5-6 1M19 27c2 1 4.5 1.5 6 1M16 27v2" stroke="#b91c1c" stroke-width="1.5" stroke-linecap="round"/>
  <circle cx="12" cy="10" r="1.5" fill="white" opacity="0.5"/>
  <circle cx="17" cy="8" r="1" fill="white" opacity="0.45"/>
  <circle cx="20" cy="11" r="1.2" fill="white" opacity="0.5"/>
</svg>
